<?xml version="1.0" encoding="iso-8859-1"?>
<!-- Generator: Adobe Illustrator 19.2.0, SVG Export Plug-In . SVG Version: 6.00 Build 0)  -->
<svg version="1.1" id="Layer_1" xmlns="http://www.w3.org/2000/svg" xmlns:xlink="http://www.w3.org/1999/xlink" x="0px" y="0px"
	 viewBox="0 0 1326 728" style="enable-background:new 0 0 1326 728;" xml:space="preserve">
<g>
	<path style="opacity:0.6;fill:#DECCE4;enable-background:new    ;" d="M893.296,231.387l183.589,143.435L935.024,556.397
		L751.435,412.962L893.296,231.387z"/>
	<g>
		<path style="fill:none;stroke:#FFFFFF;stroke-width:2;stroke-linecap:round;stroke-linejoin:round;" d="M1419.204,50.742
			c0,0-74.562,54.81-89.018,81.818c-14.458,27.011-45.604,57.561-87.843,87.385"/>
		<path style="fill:none;stroke:#FFFFFF;stroke-width:2;stroke-linecap:round;stroke-linejoin:round;" d="M1250.161,209.223
			c-0.278,5.304-17.826,24.816-26.026,35.15c-8.199,10.333-108.873,131.991-108.873,131.991s-35.249,55.193-45.595,49.305
			c0,0-29.426-17.87-25.423-25.002c0,0-8.718-53.305,17.975-85.904c26.694-32.599,65.638-87.291,68.997-99.291
			c3.356-11.999,3.709-24.258-0.536-38.876c-4.249-14.62-8.735-21.814-8.735-21.814"/>
		<path style="fill:none;stroke:#FFFFFF;stroke-width:2;stroke-linecap:round;stroke-linejoin:round;" d="M1128.684,170.29
			c0,0-6.473-3.577-16.182-15.431c-9.707-11.856-45.17-50.38-45.17-50.38"/>
		<path style="fill:none;stroke:#FFFFFF;stroke-width:2;stroke-linecap:round;stroke-linejoin:round;" d="M1088.545,127.724
			c0,0-21.469-2.286-30.268-10.422l-122.342,58.791c0,0-13.167,9.718-23.911,8.793 M1061.726,120.761c0,0-32,43.515-56.963,41.883
			 M1017.495,160.168c0,0,11.767,50.383-25.567,59.969 M1011.22,212.075c0,0,52.618,10.38,55.438,29.149 M1063.066,234.121
			c0,0,40.297-47.583,70.007-27.296"/>
		<path style="fill:none;stroke:#FFFFFF;stroke-width:2;stroke-linecap:round;stroke-linejoin:round;" d="M1074.896,298.821
			c0,0-12.728,5.09-33.056-1.133c-20.326-6.228-106.525-36.68-106.525-36.68s-27.375-14.845-21.134-37.46
			c6.242-22.617,14.06-42.828,14.06-42.828 M1019.318,188.553c0,0,26.497,3.477,36.767,22.717 M1050.369,203.492
			c-1.745-1.687,50.583-41.429,82.833-15.021 M1048.592,136.263c0,0,43.263,16.049,52.382,5.298"/>
		<path style="fill:none;stroke:#FFFFFF;stroke-width:2;stroke-linecap:round;stroke-linejoin:round;" d="M915.481,186.076
			c0,0-33.002,62.154-46.212,64.572c0,0-26.053,107.112-71.331,101.582c0,0-19.715,5.595-17.977-6.19
			c1.736-11.786,18.029-68.087,18.029-68.087s20.68-73.538,27.779-80.679c0,0,23.085-55.81,39.15-66.529
			c16.068-10.721,119.591-93.477,119.591-93.477s22.76-32.403,41.524-35.23c18.762-2.825,199.222-8.017,212.739-18.068
			c13.516-10.05,91.483-81.486,91.483-81.486"/>
		<path style="fill:none;stroke:#FFFFFF;stroke-width:2;stroke-linecap:round;stroke-linejoin:round;" d="M958.483,58
			c0,0,5.058-36.209,18.016-44.642c12.96-8.437,57.374-12.075,57.374-12.075 M797.938,352.229c0,0,13.838-49.269-5.381-55.181
			 M1044.242,400.666c0,0,27.297-62.055,47.884-54.451c20.587,7.603,28.554,21.985,23.135,30.147 M1125.649,287.789
			c1.761-0.623,25.127,4.316,37.597,30.54 M1149.386,278.223c2.469,0.85,19.355,10.961,25.747,25.718 M866.865,152.05
			c0,0-13.696-8.204-12.265-10.157 M881.369,151.112c0,0-4.533-16.781-16.448-20.368"/>
	</g>
</g>
</svg>
