<svg width="177" height="54" xmlns="http://www.w3.org/2000/svg" xmlns:xlink="http://www.w3.org/1999/xlink"><defs><path id="a" d="M.057.188h33.487v34.75H.057z"/><path id="c" d="M.227.188h38.132v34.069H.227z"/><path id="e" d="M.27.188h72.114v53.734H.271z"/></defs><g fill="none" fill-rule="evenodd"><path fill="#FFF" d="M0 .28v34.07h11.324V23.203h15.95v-8.857h-15.95v-4.332h17.472V.281z"/><g transform="translate(102.201 .093)"><mask id="b" fill="#fff"><use xlink:href="#a"/></mask><path d="M22.027 19.072c0 4.136-2.178 5.792-5.227 5.792-3.048 0-5.226-1.801-5.226-6.036V.188H.057v18.787c0 11.29 6.533 15.963 16.647 15.963 10.113 0 16.84-4.574 16.84-16.207V.188H22.027v18.884z" fill="#FFF" mask="url(#b)"/></g><g transform="translate(137.664 .093)"><mask id="d" fill="#fff"><use xlink:href="#c"/></mask><path fill="#FFF" mask="url(#d)" d="M26.551.188L19.293 12.16 12.035.188H.227v34.069h11.081V17.369L19.1 29.487h.194l7.79-12.118v16.888H38.36V.187z"/></g><g transform="translate(29.04 .093)"><mask id="f" fill="#fff"><use xlink:href="#e"/></mask><path d="M59.9 13.086c0 2.092-1.646 3.308-4.356 3.308h-4.887V9.727h4.935c2.614 0 4.307 1.07 4.307 3.261v.098zM11.69 17.223v-.094c0-3.827 2.71-7.28 7.017-7.28 4.355 0 7.113 3.5 7.113 7.374v.093c0 3.826-2.71 7.28-7.016 7.28-4.356 0-7.114-3.5-7.114-7.373zm59.483-4.965v-.097c0-3.504-1.065-6.035-3.097-8.08C65.707 1.698 61.883.189 55.883.189h-16.55V26.642h-5.107a16.154 16.154 0 0 0 3.015-9.42v-.093c0-9.473-7.984-16.941-18.436-16.941C8.352.188.27 7.748.27 17.223v.093c0 9.25 7.611 16.581 17.698 16.924v19.682h27.125V34.257h5.563v-9.734h2.419l6.388 9.734h12.92l-7.888-11.583c4.114-1.996 6.678-5.451 6.678-10.416z" fill="#FFF" mask="url(#f)"/></g></g></svg>