<svg width="39" height="26" xmlns="http://www.w3.org/2000/svg"><path d="M3 0c-.398 0-.778.08-1.125.219l16.734 14.906c.583.52 1.23.52 1.813 0L37.125.219A3.008 3.008 0 0 0 36 0H3zM.03 2.578C.012 2.715 0 2.858 0 3v20c0 .41.087.8.234 1.156l11.547-11.093L.031 2.578zm38.938 0l-11.72 10.469L38.782 24.14c.143-.351.219-.738.219-1.141V3a3.17 3.17 0 0 0-.031-.422zm-13.97 12.485l-2.577 2.312c-1.64 1.464-4.174 1.461-5.813 0l-2.578-2.297L2.656 25.984c.111.013.23.016.344.016h33c.109 0 .222-.005.328-.016L25 15.063z" fill="#FFF" fill-rule="nonzero" opacity=".7"/></svg>